<?xml version="1.0" standalone="no"?>
<!DOCTYPE svg PUBLIC "-//W3C//DTD SVG 20010904//EN"
 "http://www.w3.org/TR/2001/REC-SVG-20010904/DTD/svg10.dtd">
<svg version="1.0" xmlns="http://www.w3.org/2000/svg"
 width="462.000000pt" height="462.000000pt" viewBox="0 0 462.000000 462.000000"
 preserveAspectRatio="xMidYMid meet">
<metadata>
Created by potrace 1.14, written by Peter Selinger 2001-2017
</metadata>
<g transform="translate(0.000000,462.000000) scale(0.100000,-0.100000)"
fill="#000000" stroke="none">
<path d="M2115 4471 c-44 -3 -85 -10 -91 -13 -5 -4 -32 -9 -60 -12 -117 -11
-363 -95 -489 -166 -112 -63 -182 -104 -195 -117 -8 -7 -44 -35 -80 -62 -36
-26 -89 -71 -118 -100 -29 -28 -57 -51 -62 -51 -5 0 -11 -8 -14 -17 -3 -10
-28 -40 -56 -68 -27 -27 -49 -54 -50 -58 0 -4 -5 -13 -10 -20 -41 -48 -56 -69
-88 -122 -19 -33 -38 -62 -41 -65 -3 -3 -12 -17 -20 -32 -8 -16 -18 -28 -23
-28 -5 0 -7 -4 -3 -9 5 -9 -13 -59 -25 -71 -13 -12 -80 -177 -80 -196 0 -8 -4
-22 -9 -32 -9 -18 -29 -92 -41 -157 -22 -112 -23 -117 -11 -124 13 -8 286 -5
308 3 8 4 12 13 9 23 -3 10 4 50 15 88 11 39 24 84 28 102 5 17 18 51 30 76
11 24 21 47 21 51 0 14 71 149 95 181 12 17 29 44 38 62 15 28 54 75 107 128
11 12 20 24 20 27 0 11 124 128 135 128 3 0 24 17 46 38 23 20 48 41 57 46 10
5 19 12 22 16 11 16 230 130 248 130 5 0 23 7 40 15 52 27 216 70 337 90 148
24 371 10 545 -35 24 -6 49 -14 55 -19 5 -4 35 -13 65 -21 58 -14 260 -107
260 -120 0 -3 15 -12 33 -19 17 -8 43 -25 57 -38 14 -13 30 -23 37 -23 7 0 13
-6 13 -13 0 -7 16 -21 35 -31 68 -37 325 -334 325 -377 0 -5 4 -9 9 -9 5 0 17
-20 27 -45 9 -25 21 -45 25 -45 5 0 9 -11 9 -24 0 -13 4 -26 8 -28 11 -5 62
-126 62 -149 0 -11 7 -33 15 -49 9 -17 13 -30 11 -30 -3 0 1 -21 9 -47 7 -27
16 -74 18 -105 4 -49 2 -58 -12 -59 -9 0 -711 -1 -1561 -2 -1669 -2 -1581 1
-1657 -54 -17 -13 -34 -23 -38 -23 -11 0 -67 -63 -86 -98 -39 -69 -51 -120
-46 -205 4 -79 24 -157 39 -157 5 0 8 -6 8 -13 0 -27 105 -120 163 -145 15 -7
39 -12 53 -12 13 0 27 -6 29 -12 4 -10 342 -12 1654 -11 1488 3 1651 1 1665
-13 21 -20 20 -26 -5 -55 l-21 -24 -1666 -5 -1667 -5 -54 -30 c-130 -72 -201
-187 -201 -323 0 -43 7 -97 16 -122 30 -87 108 -172 201 -219 l42 -21 1664 0
1663 0 21 -28 c21 -29 17 -55 -11 -74 -6 -4 -768 -8 -1694 -8 -926 0 -1687 -2
-1692 -5 -13 -8 -13 -611 0 -692 10 -63 18 -89 41 -135 5 -10 9 -23 9 -29 0
-18 102 -114 155 -145 105 -63 5 -59 1570 -59 l1430 0 75 40 c68 37 190 143
190 166 0 5 9 28 20 52 11 23 22 58 26 77 11 65 12 335 2 348 -11 13 -260 18
-292 6 -14 -5 -16 -28 -16 -149 0 -131 -2 -145 -23 -176 -13 -19 -38 -39 -57
-46 -26 -9 -362 -12 -1366 -12 -1457 -1 -1374 -4 -1430 56 -24 25 -24 30 -24
209 l0 182 1526 -1 c1572 -2 1618 -1 1698 37 39 18 126 98 126 114 0 7 3 12 8
12 4 0 13 15 20 33 7 17 20 47 28 65 16 37 19 172 5 200 -5 9 -19 40 -30 68
-18 44 -81 124 -99 124 -3 0 -15 8 -26 18 -12 10 -43 27 -71 38 -48 18 -100
19 -1705 21 -910 1 -1657 2 -1660 2 -3 1 -11 10 -17 20 -10 16 -9 26 3 50 l15
31 1652 0 c1634 0 1686 1 1737 31 8 5 24 13 36 18 42 19 117 106 146 171 27
60 30 72 26 155 -4 82 -7 96 -42 160 -21 39 -48 77 -58 85 -11 8 -32 25 -48
38 -15 12 -33 22 -39 22 -6 0 -11 4 -11 8 0 7 -53 24 -112 38 -5 1 -748 2
-1653 3 l-1645 1 -11 24 c-9 20 -7 27 15 49 l26 26 1680 0 c924 0 1684 2 1688
5 10 6 8 169 -3 316 -9 132 -42 291 -82 399 -14 36 -30 79 -36 95 -32 90 -168
335 -189 344 -4 2 -8 8 -8 14 0 14 -46 73 -108 138 -29 30 -55 63 -58 73 -3 9
-9 17 -13 17 -4 0 -36 27 -70 59 -35 33 -68 62 -75 64 -6 2 -37 25 -68 51 -31
25 -59 46 -62 46 -3 0 -36 19 -73 43 -130 83 -366 181 -486 203 -20 3 -40 10
-42 15 -3 4 -12 6 -19 3 -8 -3 -33 0 -57 6 -24 7 -52 14 -62 16 -42 8 -348 12
-422 5z"/>
</g>
</svg>
